# xmcd
#
# Track frame offsets: 
#        150
#        10713
#        24315
#        34965
#        45593
#        56937
#        70139
#        82836
#        96193
#        107069
#        117211
#        125797
#        138291
#        149495
#        159872
#        172425
#        185463
#        198918
#        209577
#        223595
#
# Disc length: 3134 seconds
#
# Revision: 1
# Processed by: cddbd v1.5.2PL0 Copyright (c) Steve Scherf et al.
# Submitted via: ExactAudioCopy v1.0b6
#
DISCID=250c3c14
DTITLE=Various Artist - Stars Of Country [CD1]
DYEAR=2014
DGENRE=Country
TTITLE0=He'll Have To Go - Jim Reeves
TTITLE1=Big Bad John - Jimmy Dean
TTITLE2=Please Help Me I'm Falling - Hank Locklin
TTITLE3=Walk On By - Leroy Van-Dyke
TTITLE4=Oh Lonesome Me - Don Gibson
TTITLE5=One By One - Kitty Wells
TTITLE6=North To Alaska - Johnny Horton
TTITLE7=Wolverton Mountain - Claude King
TTITLE8=Tender Years - George Jones
TTITLE9=Honeycomb - Jimmy Rogers
TTITLE10=Blue Blue Day - Don Gibson
TTITLE11=Bimbo - Jim Reeves
TTITLE12=That Do Make It Nice - Eddy Arnold
TTITLE13=Wings Of A Dove - Ferlin Husky
TTITLE14=White Lightning - George Jones
TTITLE15=My Special Angel - Bobby Helms
TTITLE16=I Forgot More Than You'll Ever Know (About Him) - The Davis S
TTITLE16=isters
TTITLE17=Don't Just Stand There - Carl Smith
TTITLE18=Always Late (With Your Kisses) - Lefty Frizzell
TTITLE19=Battle Of New Orleans - Johnny Horton
EXTD=
EXTT0=
EXTT1=
EXTT2=
EXTT3=
EXTT4=
EXTT5=
EXTT6=
EXTT7=
EXTT8=
EXTT9=
EXTT10=
EXTT11=
EXTT12=
EXTT13=
EXTT14=
EXTT15=
EXTT16=
EXTT17=
EXTT18=
EXTT19=
PLAYORDER=
